<svg width="1440" height="1024" viewBox="0 0 1440 1024" fill="none" xmlns="http://www.w3.org/2000/svg">
<path d="M1440 1024H0V0H1440V1024ZM60 60V964H1380V60H60ZM729 75V399C666.592 399 616 449.592 616 512C616 574.408 666.592 625 729 625V949H75V738H367V574.103C376.812 571.311 385.2 564.55 391.405 555.785C399.642 544.151 404.5 528.47 404.5 511.5C404.5 494.53 399.642 478.849 391.405 467.215C385.2 458.45 376.813 451.688 367 448.896V285H75V75H729ZM1365 75V285H1073V448.896C1063.19 451.688 1054.8 458.45 1048.59 467.215C1040.36 478.849 1035.5 494.53 1035.5 511.5C1035.5 528.47 1040.36 544.151 1048.59 555.785C1054.8 564.55 1063.19 571.311 1073 574.103V738H1365V949H744V624.01C799.317 616.673 842 569.323 842 512C842 454.677 799.317 407.326 744 399.989V75H1365ZM352 300V723H75V625H213V399H75V300H352ZM1365 300V399H1227V625H1365V723H1088V300H1365ZM198 414V610H75V414H198ZM729 610C674.876 610 631 566.124 631 512C631 457.876 674.876 414 729 414V610ZM1365 414V610H1242V414H1365ZM744 415.141C791.004 422.36 827 462.976 827 512C827 561.023 791.004 601.639 744 608.858V415.141ZM367 464.939C371.402 467.134 375.563 470.797 379.163 475.882C385.404 484.697 389.5 497.266 389.5 511.5C389.5 525.734 385.404 538.303 379.163 547.118C375.563 552.203 371.402 555.865 367 558.06V464.939ZM1073 558.06C1068.6 555.865 1064.44 552.203 1060.84 547.118C1054.6 538.303 1050.5 525.734 1050.5 511.5C1050.5 497.266 1054.6 484.697 1060.84 475.882C1064.44 470.797 1068.6 467.134 1073 464.939V558.06Z" fill="white"/>
</svg>
